# xmcd CD database file
#
# Track frame offsets:
#	150
#	9817
#	18835
#	30405
#	39917
#	51677
#	62500
#	73010
#	83690
#	96082
#	107142
#	117640
#	131492
#	142820
#	156405
#	166650
#	181437
#	193250
#	203622
#	216167
#	225440
#	237645
#	248657
#	259487
#
# Disc length: 3651 seconds
#
# Revision: 2
# Processed by: cddbd v1.5.2PL0 Copyright (c) Steve Scherf et al.
# Submitted via: jetAudio 7
#
DISCID=470e4118
DTITLE=Chet Atkins - Caribbean Guitar and Travelin'
DYEAR=1900
DGENRE=Country
TTITLE0=Mayan Dance
TTITLE1=Yellow Bird
TTITLE2=Wild Orchids
TTITLE3=The Bandit
TTITLE4=Jungle Dream
TTITLE5=The Banana Boat Song
TTITLE6=Montego Bay
TTITLE7=Theme From ''Come September''
TTITLE8=Moon Over Miami
TTITLE9=Come To The Mardi Gras
TTITLE10=The Enchanted Sea
TTITLE11=Temptation
TTITLE12=Wheels
TTITLE13=Calcutta
TTITLE14=La Dolce Vita
TTITLE15=Exodus
TTITLE16=Baubles, Bangles And Beads
TTITLE17=Naboonspruit Polka
TTITLE18=Muskrat Ramble
TTITLE19=Waram Patat
TTITLE20=Volare
TTITLE21=Mossie Se Moses
TTITLE22=Sweetness
TTITLE23=The World Is Waiting For The Sunrise
EXTD=
EXTT0=
EXTT1=
EXTT2=
EXTT3=
EXTT4=
EXTT5=
EXTT6=
EXTT7=
EXTT8=
EXTT9=
EXTT10=
EXTT11=
EXTT12=
EXTT13=
EXTT14=
EXTT15=
EXTT16=
EXTT17=
EXTT18=
EXTT19=
EXTT20=
EXTT21=
EXTT22=
EXTT23=
PLAYORDER=
